<?xml version="1.0" encoding="UTF-8" standalone="no"?>
<svg
   xmlns:dc="http://purl.org/dc/elements/1.1/"
   xmlns:cc="http://creativecommons.org/ns#"
   xmlns:rdf="http://www.w3.org/1999/02/22-rdf-syntax-ns#"
   xmlns:svg="http://www.w3.org/2000/svg"
   xmlns="http://www.w3.org/2000/svg"
   xmlns:sodipodi="http://sodipodi.sourceforge.net/DTD/sodipodi-0.dtd"
   xmlns:inkscape="http://www.inkscape.org/namespaces/inkscape"
   sodipodi:docname="Page 9.svg"
   inkscape:version="1.0 (4035a4fb49, 2020-05-01)"
   id="svg1420"
   version="1.1"
   viewBox="0 0 385 272"
   height="272mm"
   width="385mm">
  <defs
     id="defs1414">
    <filter
       height="1.0017761"
       y="-0.00088802571"
       width="1.0007931"
       x="-0.00039653311"
       id="filter2745"
       style="color-interpolation-filters:sRGB"
       inkscape:collect="always">
      <feGaussianBlur
         id="feGaussianBlur2747"
         stdDeviation="0.0014389788"
         inkscape:collect="always" />
    </filter>
    <filter
       height="1.0000955"
       y="-4.7766012e-05"
       width="1.0000289"
       x="-1.4436874e-05"
       id="filter2749"
       style="color-interpolation-filters:sRGB"
       inkscape:collect="always">
      <feGaussianBlur
         id="feGaussianBlur2751"
         stdDeviation="0.0014389788"
         inkscape:collect="always" />
    </filter>
  </defs>
  <sodipodi:namedview
     inkscape:snap-nodes="true"
     inkscape:snap-page="true"
     inkscape:window-maximized="0"
     inkscape:window-y="48"
     inkscape:window-x="48"
     inkscape:window-height="672"
     inkscape:window-width="1270"
     units="mm"
     showgrid="false"
     inkscape:document-rotation="0"
     inkscape:current-layer="layer1"
     inkscape:document-units="mm"
     inkscape:cy="572.03503"
     inkscape:cx="983.49497"
     inkscape:zoom="0.33317575"
     inkscape:pageshadow="2"
     inkscape:pageopacity="0.0"
     borderopacity="1.0"
     bordercolor="#666666"
     pagecolor="#ffffff"
     id="base"
     inkscape:snap-global="true"
     inkscape:snap-grids="true"
     inkscape:snap-to-guides="true"
     inkscape:snap-others="true"
     inkscape:snap-intersection-paths="true"
     inkscape:object-nodes="true"
     inkscape:snap-bbox="true"
     inkscape:bbox-paths="true"
     inkscape:bbox-nodes="true"
     inkscape:snap-bbox-edge-midpoints="true"
     inkscape:snap-bbox-midpoints="true"
     inkscape:object-paths="true"
     inkscape:snap-smooth-nodes="true"
     inkscape:snap-midpoints="true"
     inkscape:snap-center="true"
     inkscape:snap-object-midpoints="true"
     inkscape:snap-text-baseline="true"
     showguides="false"
     inkscape:guide-bbox="true">
    <inkscape:grid
       type="xygrid"
       id="grid2136" />
    <sodipodi:guide
       position="92.232584,103.38862"
       orientation="1,0"
       id="guide15154" />
    <sodipodi:guide
       position="292.85581,144.62415"
       orientation="1,0"
       id="guide15156" />
    <sodipodi:guide
       position="356.54477,16.535022"
       orientation="0,-1"
       id="guide15160" />
    <sodipodi:guide
       id="guide1609"
       orientation="0,-1"
       position="242.65313,159.40819" />
    <sodipodi:guide
       id="guide1611"
       orientation="0,-1"
       position="207.21593,112.44462" />
  </sodipodi:namedview>
  <metadata
     id="metadata1417">
    <rdf:RDF>
      <cc:Work
         rdf:about="">
        <dc:format>image/svg+xml</dc:format>
        <dc:type
           rdf:resource="http://purl.org/dc/dcmitype/StillImage" />
        <dc:title />
      </cc:Work>
    </rdf:RDF>
  </metadata>
  <g
     id="layer1"
     inkscape:groupmode="layer"
     inkscape:label="Page">
    <rect
       y="0"
       x="0"
       height="272"
       width="385"
       id="rect1691"
       style="opacity:0.997248;fill:#000000;fill-opacity:0.03;stroke:none;stroke-width:0.806;stroke-miterlimit:4;stroke-dasharray:9.672, 9.672;stroke-dashoffset:0;stroke-opacity:0.3" />
    <g
       style="stroke:#000000;stroke-opacity:0.270134"
       transform="matrix(0.65590464,0,0,0.65590464,66.177236,46.65974)"
       id="g1709">
      <rect
         style="opacity:0.997248;fill:#ffffff;fill-opacity:1;stroke:#000000;stroke-width:0.806;stroke-miterlimit:4;stroke-dasharray:9.672, 9.672;stroke-dashoffset:0;stroke-opacity:0.270134"
         id="rect1693"
         width="276.11838"
         height="121.83807"
         x="54.533997"
         y="75.290184" />
      <g
         style="stroke:#000000;stroke-opacity:0.270134"
         id="g1700">
        <path
           d="m 110.14794,158.92263 q -5.32394,0 -9.9578,-1.87323 Q 95.654914,155.17614 92.5,151.824 l 5.718315,-7.59157 q 3.154945,2.85918 5.816945,4.14085 2.76057,1.18312 4.9296,1.18312 1.67606,0 2.95774,-0.29577 1.38032,-0.39437 2.16903,-1.08452 0.78874,-0.78873 0.78874,-1.97182 0,-1.67609 -1.38028,-2.662 -1.28172,-0.98592 -3.35215,-1.57746 -2.07042,-0.69017 -4.43663,-1.38029 -5.915511,-1.87325 -8.577511,-5.4226 -2.563374,-3.64789 -2.563374,-7.88734 0,-3.25354 1.676064,-6.50708 1.774655,-3.35212 5.521131,-5.52115 3.84509,-2.26763 9.8592,-2.26763 5.42258,0 9.16907,1.08452 3.74648,1.08451 7.09862,3.54932 l -5.22537,8.08453 q -1.87325,-1.47885 -4.23946,-2.46479 -2.26762,-1.08449 -4.23945,-1.18311 -1.77466,-0.0986 -3.05635,0.39442 -1.18311,0.49291 -1.87325,1.28166 -0.69015,0.78874 -0.69015,1.67605 -0.0986,1.87326 1.38029,2.95777 1.57746,1.08455 3.94369,1.67606 2.3662,0.59155 4.63379,1.38029 3.15498,0.98591 5.42258,2.66197 2.26763,1.67608 3.45074,4.04228 1.28168,2.26761 1.28168,5.52115 0,3.94371 -2.07042,7.493 -1.97186,3.45074 -6.11271,5.61977 -4.04229,2.169 -10.35218,2.169 z"
           style="font-style:normal;font-variant:normal;font-weight:bold;font-stretch:normal;font-size:50.8px;line-height:1.25;font-family:'Josefin Sans';-inkscape-font-specification:'Josefin Sans Bold';letter-spacing:-2.84427px;fill:#010101;fill-opacity:1;stroke:#000000;stroke-width:0.51374;stroke-miterlimit:4;stroke-dasharray:none;stroke-opacity:0.270134"
           id="path944-8-5" />
        <path
           d="m 152.83917,159.21843 q -6.01411,0 -10.94368,-2.36623 -4.83101,-2.4648 -7.6902,-7.493 -2.85915,-5.0282 -2.85915,-12.81694 0,-7.29583 2.95774,-12.6198 2.95777,-5.32395 7.78878,-8.18315 4.831,-2.95774 10.25357,-2.95774 6.40848,0 9.66203,2.16906 3.35211,2.0704 5.52114,4.63377 l -0.59155,1.67609 1.28169,-6.30986 h 12.81697 v 43.08468 h -13.80289 v -9.36622 l 1.08452,2.95774 q -0.19714,0 -1.18312,1.18314 -0.9859,1.08446 -2.95774,2.66194 -1.87325,1.47892 -4.73242,2.5634 -2.76058,1.18312 -6.60569,1.18312 z m 3.94369,-11.23952 q 2.46483,0 4.43665,-0.69013 1.97186,-0.78872 3.45072,-2.16904 1.47889,-1.47888 2.56339,-3.64788 v -10.54935 q -0.78873,-2.16902 -2.36622,-3.64791 -1.57746,-1.57749 -3.74649,-2.3662 -2.16902,-0.88734 -4.83099,-0.88734 -2.95777,0 -5.52118,1.57748 -2.4648,1.47886 -3.94368,4.14086 -1.47886,2.66197 -1.47886,6.11272 0,3.45071 1.57746,6.21128 1.57748,2.76057 4.14085,4.33803 2.662,1.57748 5.71835,1.57748 z"
           style="font-style:normal;font-variant:normal;font-weight:bold;font-stretch:normal;font-size:50.8px;line-height:1.25;font-family:'Josefin Sans';-inkscape-font-specification:'Josefin Sans Bold';letter-spacing:-2.84427px;fill:#010101;fill-opacity:1;stroke:#000000;stroke-width:0.51374;stroke-miterlimit:4;stroke-dasharray:none;stroke-opacity:0.270134"
           id="path946-1-3" />
        <path
           d="m 202.23466,114.95063 1.08451,7.69014 -0.19714,-0.69011 q 2.2676,-4.04231 6.40851,-6.50712 4.14086,-2.56337 10.15498,-2.56337 6.11268,0 10.15497,3.64789 4.14083,3.54931 4.23945,9.26765 v 32.2396 h -13.80291 v -27.1128 q -0.0986,-2.85919 -1.57743,-4.53522 -1.38029,-1.77469 -4.73243,-1.77469 -3.15495,0 -5.52114,2.07046 -2.36623,2.07043 -3.64792,5.61971 -1.28171,3.54935 -1.28171,8.18317 v 17.54937 h -13.80289 v -43.08468 z"
           style="font-style:normal;font-variant:normal;font-weight:bold;font-stretch:normal;font-size:50.8px;line-height:1.25;font-family:'Josefin Sans';-inkscape-font-specification:'Josefin Sans Bold';letter-spacing:-2.84427px;fill:#010101;fill-opacity:1;stroke:#000000;stroke-width:0.51374;stroke-miterlimit:4;stroke-dasharray:none;stroke-opacity:0.270134"
           id="path948-9-4" />
        <path
           d="m 256.75706,158.92263 q -5.32395,0 -9.9578,-1.87323 -4.5352,-1.87326 -7.69018,-5.2254 l 5.71834,-7.59157 q 3.15495,2.85918 5.81695,4.14085 2.76057,1.18312 4.92957,1.18312 1.67611,0 2.95777,-0.29577 1.38029,-0.39437 2.16903,-1.08452 0.78874,-0.78873 0.78874,-1.97182 0,-1.67609 -1.38029,-2.662 -1.28171,-0.98592 -3.35213,-1.57746 -2.07044,-0.69017 -4.43663,-1.38029 -5.91551,-1.87325 -8.57751,-5.4226 -2.56341,-3.64789 -2.56341,-7.88734 0,-3.25354 1.67606,-6.50708 1.77465,-3.35212 5.52117,-5.52115 3.84509,-2.26763 9.8592,-2.26763 5.42257,0 9.16905,1.08452 3.74652,1.08451 7.09867,3.54932 l -5.2254,8.08453 q -1.87327,-1.47885 -4.23946,-2.46479 -2.2676,-1.08449 -4.23946,-1.18311 -1.77465,-0.0986 -3.05631,0.39442 -1.18314,0.49291 -1.87329,1.28166 -0.69017,0.78874 -0.69017,1.67605 -0.0986,1.87326 1.38032,2.95777 1.57748,1.08455 3.94371,1.67606 2.36617,0.59155 4.63377,1.38029 3.15497,0.98591 5.42257,2.66197 2.26763,1.67608 3.45074,4.04228 1.28169,2.26761 1.28169,5.52115 0,3.94371 -2.07045,7.493 -1.97184,3.45074 -6.1127,5.61977 -4.04228,2.169 -10.35216,2.169 z"
           style="font-style:normal;font-variant:normal;font-weight:bold;font-stretch:normal;font-size:50.8px;line-height:1.25;font-family:'Josefin Sans';-inkscape-font-specification:'Josefin Sans Bold';letter-spacing:-2.84427px;fill:#010101;fill-opacity:1;stroke:#000000;stroke-width:0.51374;stroke-miterlimit:4;stroke-dasharray:none;stroke-opacity:0.270134"
           id="path950-9-9" />
        <path
           d="m 278.49994,151.78926 q 0,-3.05637 2.169,-5.1268 2.26766,-2.07043 4.9296,-2.07043 2.46483,0 4.63383,2.07043 2.26763,2.07043 2.26763,5.1268 0,3.25354 -2.26763,5.22537 -2.169,1.87326 -4.63383,1.87326 -2.66194,0 -4.9296,-1.87326 -2.169,-1.97183 -2.169,-5.22537 z"
           style="font-size:50.8px;line-height:1.25;font-family:'Josefin Sans';-inkscape-font-specification:'Josefin Sans';fill:#4c4c4c;fill-opacity:1;stroke:#000000;stroke-width:0.5135;stroke-opacity:0.270134"
           id="path952-7-0" />
      </g>
    </g>
    <text
       id="text1000"
       y="253.57072"
       x="92.022507"
       style="font-style:normal;font-variant:normal;font-weight:normal;font-stretch:normal;font-size:9.87778px;line-height:1.25;font-family:'Josefin Sans';-inkscape-font-specification:'Josefin Sans';display:inline;fill:#000000;fill-opacity:0.6;stroke-width:0.264583"
       xml:space="preserve"
       inkscape:label="«Grayscale logo variant.»"><tspan
         style="font-style:normal;font-variant:normal;font-weight:normal;font-stretch:normal;font-size:9.87778px;font-family:'Josefin Sans';-inkscape-font-specification:'Josefin Sans';fill:#000000;fill-opacity:0.6;stroke-width:0.264583"
         y="253.57072"
         x="92.022507"
         id="tspan998"
         sodipodi:role="line">Surround the logo with clear space of at least the width of „S“.</tspan></text>
    <g
       inkscape:groupmode="layer"
       style="display:none"
       id="g49">
      <path
         id="rect1632-6"
         style="display:inline;opacity:1;fill:#dcedf5;fill-opacity:1;stroke:none;stroke-width:2.03647;stroke-miterlimit:4;stroke-dasharray:12.2188, 12.2188;stroke-dashoffset:0;stroke-opacity:0.6;filter:url(#filter2749)"
         d="m 276.58008,378.75977 v 12.61132 h -0.19727 v 245.28907 h 0.18946 v 12.83007 h 899.86323 v -0.3164 h 2.002 V 378.77539 h -2.002 v -0.0156 z m 72.5625,46.5625 H 1106.6523 V 602.29883 H 349.14258 Z"
         transform="scale(0.26458333)" />
      <rect
         transform="matrix(0.99999986,0,0,1.0103246,2.67643e-5,-1.4031776)"
         style="display:inline;opacity:1;fill:none;fill-opacity:0.00784314;stroke:#4197b8;stroke-width:0.5;stroke-miterlimit:4;stroke-dasharray:3, 3;stroke-dashoffset:0;stroke-opacity:0.6"
         id="rect1613"
         width="199.96266"
         height="46.317318"
         x="92.588974"
         y="112.78157" />
      <path
         id="rect1613-3"
         transform="matrix(0.99943312,0,0,1.1156337,0.10912346,-15.726181)"
         d="M 72.823547,103.59627 H 312.17647 v 64.80746 H 72.823547 Z"
         style="display:inline;opacity:1;fill:#000700;fill-opacity:0.00784314;stroke:#4197b8;stroke-width:0.646819;stroke-miterlimit:4;stroke-dasharray:3.88092, 3.88092;stroke-dashoffset:0;stroke-opacity:0.6" />
      <text
         xml:space="preserve"
         style="font-size:5.64444px;line-height:1.25;font-family:'Paytone One';-inkscape-font-specification:'Paytone One';display:inline;opacity:1;stroke-width:0.264583"
         x="187.80101"
         y="167.52664"
         id="text1709"><tspan
           sodipodi:role="line"
           id="tspan1707"
           x="187.80101"
           y="167.52664"
           style="font-style:normal;font-variant:normal;font-weight:bold;font-stretch:normal;font-size:5.64444px;font-family:'Josefin Sans';-inkscape-font-specification:'Josefin Sans Bold';fill:#4197b8;fill-opacity:1;stroke-width:0.264583">1.2x</tspan></text>
      <text
         id="text1709-3"
         y="137.89935"
         x="78.446602"
         style="font-size:5.64444px;line-height:1.25;font-family:'Paytone One';-inkscape-font-specification:'Paytone One';display:inline;opacity:1;stroke-width:0.264583;filter:url(#filter2745)"
         xml:space="preserve"
         transform="rotate(-90,82.886434,135.27377)"><tspan
           style="font-style:normal;font-variant:normal;font-weight:bold;font-stretch:normal;font-size:5.64444px;font-family:'Josefin Sans';-inkscape-font-specification:'Josefin Sans Bold';fill:#4197b8;fill-opacity:1;stroke-width:0.264583"
           y="137.89935"
           x="78.446602"
           id="tspan1707-5"
           sodipodi:role="line">1.6x</tspan></text>
    </g>
    <g
       style="display:none"
       id="g1019">
      <path
         style="fill:none;stroke:#000000;stroke-width:0.765;stroke-linecap:butt;stroke-linejoin:miter;stroke-miterlimit:4;stroke-dasharray:4.59, 4.59;stroke-dashoffset:0;stroke-opacity:0.564706"
         d="M 91.863078,0.065066 V 271.5506"
         id="path53" />
      <path
         id="path53-3"
         d="M 293.37179,0 V 271.48555"
         style="fill:none;stroke:#000000;stroke-width:0.765;stroke-linecap:butt;stroke-linejoin:miter;stroke-miterlimit:4;stroke-dasharray:4.58999, 4.58999;stroke-dashoffset:0;stroke-opacity:0.564706" />
      <path
         id="path53-6"
         d="M 385,112.49767 H 0"
         style="fill:none;stroke:#000000;stroke-width:0.911;stroke-linecap:butt;stroke-linejoin:miter;stroke-miterlimit:4;stroke-dasharray:5.46599, 5.46599;stroke-dashoffset:0;stroke-opacity:0.564706" />
      <path
         style="fill:none;stroke:#000000;stroke-width:0.911;stroke-linecap:butt;stroke-linejoin:miter;stroke-miterlimit:4;stroke-dasharray:5.466, 5.466;stroke-dashoffset:0;stroke-opacity:0.564706"
         d="M 385.0149,159.83594 H 0.0149056"
         id="path53-6-7" />
      <path
         id="path53-5"
         d="M 66.684873,0.0963931 V 271.58194"
         style="fill:none;stroke:#000000;stroke-width:0.765;stroke-linecap:butt;stroke-linejoin:miter;stroke-miterlimit:4;stroke-dasharray:4.58999, 4.58999;stroke-dashoffset:0;stroke-opacity:0.564706" />
      <path
         style="fill:none;stroke:#000000;stroke-width:0.765;stroke-linecap:butt;stroke-linejoin:miter;stroke-miterlimit:4;stroke-dasharray:4.58999, 4.58999;stroke-dashoffset:0;stroke-opacity:0.564706"
         d="M 319.58781,0.93024018 V 272.4158"
         id="path53-5-3" />
      <path
         id="path53-6-7-5"
         d="M 385.94756,186.66224 H 0.94779143"
         style="fill:none;stroke:#000000;stroke-width:0.911;stroke-linecap:butt;stroke-linejoin:miter;stroke-miterlimit:4;stroke-dasharray:5.466, 5.466;stroke-dashoffset:0;stroke-opacity:0.564706" />
      <path
         style="fill:none;stroke:#000000;stroke-width:0.911;stroke-linecap:butt;stroke-linejoin:miter;stroke-miterlimit:4;stroke-dasharray:5.466, 5.466;stroke-dashoffset:0;stroke-opacity:0.564706"
         d="M 385.83603,84.876807 H 0.83650643"
         id="path53-6-7-5-6" />
    </g>
    <g
       style="fill:#000800;fill-opacity:0.00784314"
       transform="translate(0.51227623,-1.992285)"
       id="g1063">
      <path
         d="m 77.178925,138.09888 q 0,-3.05637 2.169,-5.1268 2.26766,-2.07043 4.9296,-2.07043 2.46483,0 4.63383,2.07043 2.26763,2.07043 2.26763,5.1268 0,3.25354 -2.26763,5.22537 -2.169,1.87326 -4.63383,1.87326 -2.66194,0 -4.9296,-1.87326 -2.169,-1.97183 -2.169,-5.22537 z"
         style="font-size:50.8px;line-height:1.25;font-family:'Josefin Sans';-inkscape-font-specification:'Josefin Sans';fill:#000800;fill-opacity:0.00784314;stroke-width:0.513501"
         id="path952-7-0-2" />
      <path
         d="m 63.137923,137.98429 q 0,-3.05637 2.169,-5.1268 2.26766,-2.07043 4.929601,-2.07043 2.46483,0 4.633829,2.07043 2.26763,2.07043 2.26763,5.1268 0,3.25354 -2.26763,5.22537 -2.168999,1.87326 -4.633829,1.87326 -2.661941,0 -4.929601,-1.87326 -2.169,-1.97183 -2.169,-5.22537 z"
         style="font-size:50.8px;line-height:1.25;font-family:'Josefin Sans';-inkscape-font-specification:'Josefin Sans';fill:#000800;fill-opacity:0.00784314;stroke-width:0.513501"
         id="path952-7-0-9" />
    </g>
  </g>
</svg>
