<?xml version="1.0" encoding="UTF-8" standalone="no"?>
<svg
   xmlns:dc="http://purl.org/dc/elements/1.1/"
   xmlns:cc="http://creativecommons.org/ns#"
   xmlns:rdf="http://www.w3.org/1999/02/22-rdf-syntax-ns#"
   xmlns:svg="http://www.w3.org/2000/svg"
   xmlns="http://www.w3.org/2000/svg"
   xmlns:sodipodi="http://sodipodi.sourceforge.net/DTD/sodipodi-0.dtd"
   xmlns:inkscape="http://www.inkscape.org/namespaces/inkscape"
   width="385mm"
   height="272mm"
   viewBox="0 0 385 272"
   version="1.1"
   id="svg1420"
   inkscape:version="1.0 (4035a4fb49, 2020-05-01)"
   sodipodi:docname="4.svg">
  <defs
     id="defs1414" />
  <sodipodi:namedview
     inkscape:snap-text-baseline="true"
     inkscape:snap-object-midpoints="true"
     inkscape:snap-center="true"
     inkscape:snap-midpoints="true"
     inkscape:snap-smooth-nodes="true"
     inkscape:object-paths="true"
     inkscape:snap-bbox-midpoints="true"
     inkscape:snap-bbox-edge-midpoints="true"
     inkscape:bbox-nodes="true"
     inkscape:bbox-paths="true"
     inkscape:snap-bbox="true"
     inkscape:object-nodes="true"
     inkscape:snap-intersection-paths="true"
     inkscape:snap-others="true"
     inkscape:snap-to-guides="true"
     inkscape:snap-grids="true"
     inkscape:snap-global="true"
     id="base"
     pagecolor="#ffffff"
     bordercolor="#666666"
     borderopacity="1.0"
     inkscape:pageopacity="0.0"
     inkscape:pageshadow="2"
     inkscape:zoom="0.29857056"
     inkscape:cx="568.02076"
     inkscape:cy="663.27566"
     inkscape:document-units="mm"
     inkscape:current-layer="layer1"
     inkscape:document-rotation="0"
     showgrid="false"
     units="mm"
     inkscape:window-width="1270"
     inkscape:window-height="672"
     inkscape:window-x="48"
     inkscape:window-y="48"
     inkscape:window-maximized="0"
     inkscape:snap-page="true"
     showguides="true"
     inkscape:guide-bbox="true">
    <inkscape:grid
       id="grid2136"
       type="xygrid" />
    <sodipodi:guide
       position="356.5498,284.91086"
       orientation="1,0"
       id="guide15158" />
    <sodipodi:guide
       position="2.0858562,16.519775"
       orientation="0,-1"
       id="guide15162" />
  </sodipodi:namedview>
  <metadata
     id="metadata1417">
    <rdf:RDF>
      <cc:Work
         rdf:about="">
        <dc:format>image/svg+xml</dc:format>
        <dc:type
           rdf:resource="http://purl.org/dc/dcmitype/StillImage" />
        <dc:title />
      </cc:Work>
    </rdf:RDF>
  </metadata>
  <g
     inkscape:label="Page"
     inkscape:groupmode="layer"
     id="layer1">
    <g
       id="g15169"
       inkscape:label="Logo">
      <path
         d="m 91.328146,164.16111 q -6.540608,0 -12.23344,-2.30132 -5.571655,-2.30135 -9.447557,-6.41955 l 7.025113,-9.32646 q 3.875935,3.51257 7.146278,5.08715 3.391442,1.45349 6.05616,1.45349 2.059082,0 3.633671,-0.36336 1.695754,-0.48449 2.664708,-1.33236 0.968997,-0.96898 0.968997,-2.42244 0,-2.05912 -1.695721,-3.27034 -1.574622,-1.21123 -4.118209,-1.93796 -2.543575,-0.84789 -5.450523,-1.69572 -7.267377,-2.30134 -10.53772,-6.66181 -3.149178,-4.48154 -3.149178,-9.68984 0,-3.99706 2.059093,-7.99413 2.180214,-4.11817 6.782872,-6.78288 4.723801,-2.78585 12.112309,-2.78585 6.661784,0 11.264451,1.33236 4.60266,1.33236 8.72087,4.36044 l -6.41952,9.93208 q -2.30135,-1.81682 -5.2083,-3.02807 -2.785835,-1.33232 -5.20829,-1.45349 -2.180214,-0.1211 -3.754803,0.48456 -1.453491,0.60556 -2.301345,1.57456 -0.847866,0.96899 -0.847866,2.05908 -0.121099,2.30134 1.69572,3.6337 1.937951,1.3324 4.844933,2.05909 2.906948,0.72673 5.692751,1.69572 3.87598,1.21122 6.66179,3.27031 2.78585,2.05911 4.23934,4.96606 1.57458,2.78582 1.57458,6.78288 0,4.84497 -2.54358,9.20536 -2.42248,4.23934 -7.50964,6.90406 -4.966063,2.66468 -12.717944,2.66468 z"
         style="font-style:normal;font-variant:normal;font-weight:bold;font-stretch:normal;font-size:50.8px;line-height:1.25;font-family:'Josefin Sans';-inkscape-font-specification:'Josefin Sans Bold';letter-spacing:-2.84427px;fill:#010101;fill-opacity:1;stroke-width:0.631145;stroke-miterlimit:4;stroke-dasharray:none"
         id="path944-8-5" />
      <path
         d="m 143.77554,164.5245 q -7.38851,0 -13.44462,-2.90698 -5.93503,-3.02807 -9.44764,-9.20536 -3.51254,-6.17729 -3.51254,-15.74598 0,-8.96313 3.63367,-15.50378 3.63371,-6.54062 9.56874,-10.05323 5.93501,-3.63367 12.5968,-3.63367 7.873,0 11.87008,2.66475 4.11816,2.54354 6.78288,5.69272 l -0.72674,2.05912 1.57459,-7.75184 h 15.74602 v 52.93076 h -16.95724 v -11.50667 l 1.33235,3.63367 q -0.24219,0 -1.45349,1.45352 -1.21121,1.33229 -3.63367,3.27027 -2.30134,1.8169 -5.81392,3.14921 -3.39144,1.45349 -8.11527,1.45349 z m 4.84493,-13.80806 q 3.02811,0 5.45056,-0.84786 2.42249,-0.96896 4.23931,-2.66471 1.81685,-1.81686 3.1492,-4.48153 v -12.96017 q -0.96899,-2.66471 -2.90697,-4.48158 -1.93796,-1.93798 -4.60267,-2.90693 -2.66471,-1.09013 -5.93502,-1.09013 -3.63371,0 -6.78292,1.93798 -3.02808,1.81682 -4.84493,5.08716 -1.81682,3.27031 -1.81682,7.50966 0,4.23929 1.93795,7.63073 1.93799,3.39144 5.08716,5.3294 3.27035,1.93798 7.02515,1.93798 z"
         style="font-style:normal;font-variant:normal;font-weight:bold;font-stretch:normal;font-size:50.8px;line-height:1.25;font-family:'Josefin Sans';-inkscape-font-specification:'Josefin Sans Bold';letter-spacing:-2.84427px;fill:#010101;fill-opacity:1;stroke-width:0.631145;stroke-miterlimit:4;stroke-dasharray:none"
         id="path946-1-3" />
      <path
         d="m 204.4593,110.14025 1.33236,9.44756 -0.24219,-0.84782 q 2.7858,-4.9661 7.87303,-7.99418 5.08716,-3.14918 12.47568,-3.14918 7.50961,0 12.47567,4.48154 5.08713,4.36043 5.2083,11.38557 v 39.60727 h -16.95728 v -33.30884 q -0.1211,-3.51261 -1.93792,-5.57166 -1.69572,-2.18026 -5.81391,-2.18026 -3.87595,0 -6.78289,2.54362 -2.90698,2.54359 -4.48157,6.90398 -1.57462,4.36048 -1.57462,10.05326 v 21.5599 h -16.95724 v -52.93076 z"
         style="font-style:normal;font-variant:normal;font-weight:bold;font-stretch:normal;font-size:50.8px;line-height:1.25;font-family:'Josefin Sans';-inkscape-font-specification:'Josefin Sans Bold';letter-spacing:-2.84427px;fill:#010101;fill-opacity:1;stroke-width:0.631145;stroke-miterlimit:4;stroke-dasharray:none"
         id="path948-9-4" />
      <path
         d="m 271.44163,164.16111 q -6.54062,0 -12.23344,-2.30132 -5.57163,-2.30135 -9.4476,-6.41955 l 7.02514,-9.32646 q 3.87595,3.51257 7.14629,5.08715 3.39144,1.45349 6.05612,1.45349 2.05914,0 3.6337,-0.36336 1.69572,-0.48449 2.66472,-1.33236 0.96898,-0.96898 0.96898,-2.42244 0,-2.05912 -1.69572,-3.27034 -1.57462,-1.21123 -4.11819,-1.93796 -2.54359,-0.84789 -5.45053,-1.69572 -7.26737,-2.30134 -10.53772,-6.66181 -3.14921,-4.48154 -3.14921,-9.68984 0,-3.99706 2.05908,-7.99413 2.18022,-4.11817 6.78292,-6.78288 4.7238,-2.78585 12.11231,-2.78585 6.66178,0 11.26444,1.33236 4.6027,1.33236 8.72091,4.36044 l -6.41955,9.93208 q -2.30136,-1.81682 -5.2083,-3.02807 -2.78581,-1.33232 -5.20829,-1.45349 -2.18021,-0.1211 -3.75477,0.48456 -1.45352,0.60556 -2.30139,1.57456 -0.84789,0.96899 -0.84789,2.05908 -0.1211,2.30134 1.69576,3.6337 1.93798,1.3324 4.84496,2.05909 2.90691,0.72673 5.69272,1.69572 3.87597,1.21122 6.66179,3.27031 2.78584,2.05911 4.23933,4.96606 1.57459,2.78582 1.57459,6.78288 0,4.84497 -2.54361,9.20536 -2.42246,4.23934 -7.50962,6.90406 -4.96606,2.66468 -12.71793,2.66468 z"
         style="font-style:normal;font-variant:normal;font-weight:bold;font-stretch:normal;font-size:50.8px;line-height:1.25;font-family:'Josefin Sans';-inkscape-font-specification:'Josefin Sans Bold';letter-spacing:-2.84427px;fill:#010101;fill-opacity:1;stroke-width:0.631145;stroke-miterlimit:4;stroke-dasharray:none"
         id="path950-9-9" />
      <path
         d="m 298.15338,155.39756 q 0,-3.75484 2.66467,-6.29843 2.78589,-2.54357 6.05616,-2.54357 3.02812,0 5.69279,2.54357 2.78585,2.54359 2.78585,6.29843 0,3.99706 -2.78585,6.41952 -2.66467,2.30134 -5.69279,2.30134 -3.27027,0 -6.05616,-2.30134 -2.66467,-2.42246 -2.66467,-6.41952 z"
         style="font-size:50.8px;line-height:1.25;font-family:'Josefin Sans';-inkscape-font-specification:'Josefin Sans';fill:#ff0000;fill-opacity:1;stroke-width:0.630849"
         id="path952-7-0" />
    </g>
    <text
       inkscape:label="«Black on white logo variant.»"
       xml:space="preserve"
       style="font-style:normal;font-variant:normal;font-weight:normal;font-stretch:normal;font-size:9.87778px;line-height:1.25;font-family:'Josefin Sans';-inkscape-font-specification:'Josefin Sans';fill:#000000;fill-opacity:0.6;stroke-width:0.264583"
       x="233.12044"
       y="253.45528"
       id="text1000"><tspan
         sodipodi:role="line"
         id="tspan998"
         x="233.12044"
         y="253.45528"
         style="font-style:normal;font-variant:normal;font-weight:normal;font-stretch:normal;font-size:9.87778px;font-family:'Josefin Sans';-inkscape-font-specification:'Josefin Sans';fill:#000000;fill-opacity:0.6;stroke-width:0.264583">Black on white logo variant.</tspan></text>
  </g>
</svg>
