<?xml version="1.0" encoding="UTF-8" standalone="no"?>
<svg
   xmlns:dc="http://purl.org/dc/elements/1.1/"
   xmlns:cc="http://creativecommons.org/ns#"
   xmlns:rdf="http://www.w3.org/1999/02/22-rdf-syntax-ns#"
   xmlns:svg="http://www.w3.org/2000/svg"
   xmlns="http://www.w3.org/2000/svg"
   xmlns:sodipodi="http://sodipodi.sourceforge.net/DTD/sodipodi-0.dtd"
   xmlns:inkscape="http://www.inkscape.org/namespaces/inkscape"
   width="385mm"
   height="272mm"
   viewBox="0 0 385 272"
   version="1.1"
   id="svg1420"
   inkscape:version="1.0 (4035a4fb49, 2020-05-01)"
   sodipodi:docname="7.svg">
  <defs
     id="defs1414" />
  <sodipodi:namedview
     inkscape:guide-bbox="true"
     showguides="true"
     inkscape:snap-text-baseline="true"
     inkscape:snap-object-midpoints="true"
     inkscape:snap-center="true"
     inkscape:snap-midpoints="true"
     inkscape:snap-smooth-nodes="true"
     inkscape:object-paths="true"
     inkscape:snap-bbox-midpoints="true"
     inkscape:snap-bbox-edge-midpoints="true"
     inkscape:bbox-nodes="true"
     inkscape:bbox-paths="true"
     inkscape:snap-bbox="true"
     inkscape:object-nodes="true"
     inkscape:snap-intersection-paths="true"
     inkscape:snap-others="true"
     inkscape:snap-to-guides="true"
     inkscape:snap-grids="true"
     inkscape:snap-global="true"
     id="base"
     pagecolor="#ffffff"
     bordercolor="#666666"
     borderopacity="1.0"
     inkscape:pageopacity="0.0"
     inkscape:pageshadow="2"
     inkscape:zoom="0.84448507"
     inkscape:cx="1127.5193"
     inkscape:cy="824.56348"
     inkscape:document-units="mm"
     inkscape:current-layer="layer1"
     inkscape:document-rotation="0"
     showgrid="false"
     units="mm"
     inkscape:window-width="1270"
     inkscape:window-height="672"
     inkscape:window-x="48"
     inkscape:window-y="48"
     inkscape:window-maximized="0"
     inkscape:snap-page="true">
    <inkscape:grid
       id="grid2136"
       type="xygrid" />
    <sodipodi:guide
       id="guide15154"
       orientation="1,0"
       position="100.25833,18.221091" />
    <sodipodi:guide
       id="guide15156"
       orientation="1,0"
       position="356.54478,16.535022" />
    <sodipodi:guide
       id="guide15160"
       orientation="0,-1"
       position="356.54477,16.535022" />
  </sodipodi:namedview>
  <metadata
     id="metadata1417">
    <rdf:RDF>
      <cc:Work
         rdf:about="">
        <dc:format>image/svg+xml</dc:format>
        <dc:type
           rdf:resource="http://purl.org/dc/dcmitype/StillImage" />
        <dc:title></dc:title>
      </cc:Work>
    </rdf:RDF>
  </metadata>
  <g
     sodipodi:insensitive="true"
     inkscape:label="Page"
     inkscape:groupmode="layer"
     id="layer1">
    <g
       sodipodi:insensitive="true"
       inkscape:label="Logo"
       transform="matrix(1.1038052,0,0,1.1038052,-52.39175,-96.123246)"
       id="g4549">
      <path
         d="m 130.20404,235.80642 q -5.92551,0 -11.08297,-2.08489 -5.04768,-2.08493 -8.55908,-5.81584 l 6.36445,-8.44937 q 3.51143,3.18224 6.47422,4.60874 3.0725,1.3168 5.48662,1.3168 1.86544,0 3.29195,-0.32919 1.53628,-0.43893 2.41411,-1.20706 0.87787,-0.87786 0.87787,-2.19463 0,-1.86547 -1.53625,-2.96279 -1.42654,-1.09732 -3.73092,-1.7557 -2.30437,-0.76816 -4.93794,-1.53625 -6.58393,-2.08492 -9.54672,-6.03532 -2.85302,-4.06008 -2.85302,-8.77857 0,-3.62117 1.86545,-7.24234 1.97518,-3.73089 6.14499,-6.145 4.27956,-2.52386 10.97323,-2.52386 6.03529,0 10.20511,1.20706 4.16981,1.20706 7.90073,3.95037 l -5.81581,8.99804 q -2.08492,-1.64596 -4.71849,-2.7433 -2.52385,-1.20703 -4.71849,-1.3168 -1.97518,-0.10971 -3.40169,0.43899 -1.3168,0.54861 -2.08492,1.42648 -0.76813,0.87787 -0.76813,1.86544 -0.10971,2.08492 1.53625,3.29198 1.7557,1.20709 4.3893,1.86544 2.63357,0.65839 5.15739,1.53625 3.51147,1.09732 6.03529,2.96276 2.52386,1.86547 3.84066,4.49904 1.4265,2.52383 1.4265,6.145 0,4.38933 -2.30437,8.33966 -2.19466,3.84066 -6.80341,6.25478 -4.49904,2.41408 -11.52191,2.41408 z"
         style="font-style:normal;font-variant:normal;font-weight:bold;font-stretch:normal;font-size:50.8px;line-height:1.25;font-family:'Josefin Sans';-inkscape-font-specification:'Josefin Sans Bold';letter-spacing:-2.84427px;fill:#010101;fill-opacity:1;stroke-width:0.57179;stroke-miterlimit:4;stroke-dasharray:none"
         id="path944-8-5" />
      <path
         d="m 177.71912,236.13564 q -6.69367,0 -12.18025,-2.6336 -5.37688,-2.7433 -8.55915,-8.33966 -3.18221,-5.59636 -3.18221,-14.26518 0,-8.12021 3.29195,-14.04576 3.29198,-5.92552 8.66886,-9.10779 5.37687,-3.29195 11.41216,-3.29195 7.1326,0 10.75378,2.41415 3.73088,2.30434 6.145,5.15736 l -0.65839,1.86547 1.42651,-7.02283 h 14.26521 v 47.95299 h -15.36253 v -10.42455 l 1.20706,3.29195 q -0.21942,0 -1.3168,1.31683 -1.09731,1.20699 -3.29195,2.96272 -2.08492,1.64603 -5.26716,2.85305 -3.0725,1.3168 -7.35209,1.3168 z m 4.3893,-12.50951 q 2.74334,0 4.93797,-0.76812 2.19467,-0.87784 3.84063,-2.41412 1.64599,-1.64599 2.85304,-4.06007 v -11.74136 q -0.87786,-2.41411 -2.63359,-4.06011 -1.7557,-1.75573 -4.16982,-2.63356 -2.41411,-0.98761 -5.37687,-0.98761 -3.29198,0 -6.14503,1.75573 -2.74331,1.64596 -4.3893,4.60875 -1.64596,2.96276 -1.64596,6.80342 0,3.84062 1.7557,6.91312 1.75573,3.0725 4.60875,4.8282 2.96279,1.75573 6.36448,1.75573 z"
         style="font-style:normal;font-variant:normal;font-weight:bold;font-stretch:normal;font-size:50.8px;line-height:1.25;font-family:'Josefin Sans';-inkscape-font-specification:'Josefin Sans Bold';letter-spacing:-2.84427px;fill:#010101;fill-opacity:1;stroke-width:0.57179;stroke-miterlimit:4;stroke-dasharray:none"
         id="path946-1-3" />
      <path
         d="m 232.696,186.86585 1.20706,8.55908 -0.21942,-0.76809 q 2.52382,-4.49907 7.13263,-7.24238 4.60875,-2.85302 11.30243,-2.85302 6.80338,0 11.30242,4.06008 4.60872,3.95036 4.71849,10.31484 v 35.88248 h -15.36256 v -30.17638 q -0.10971,-3.18227 -1.75567,-5.04768 -1.53625,-1.97522 -5.26716,-1.97522 -3.51144,0 -6.145,2.30441 -2.6336,2.30438 -4.06011,6.25471 -1.42654,3.9504 -1.42654,9.10782 v 19.53234 h -15.36253 v -47.95299 z"
         style="font-style:normal;font-variant:normal;font-weight:bold;font-stretch:normal;font-size:50.8px;line-height:1.25;font-family:'Josefin Sans';-inkscape-font-specification:'Josefin Sans Bold';letter-spacing:-2.84427px;fill:#010101;fill-opacity:1;stroke-width:0.57179;stroke-miterlimit:4;stroke-dasharray:none"
         id="path948-9-4" />
      <path
         d="m 293.3791,235.80642 q -5.92552,0 -11.08297,-2.08489 -5.04765,-2.08493 -8.55912,-5.81584 l 6.36448,-8.44937 q 3.51144,3.18224 6.47423,4.60874 3.0725,1.3168 5.48658,1.3168 1.8655,0 3.29198,-0.32919 1.53625,-0.43893 2.41412,-1.20706 0.87786,-0.87786 0.87786,-2.19463 0,-1.86547 -1.53625,-2.96279 -1.42654,-1.09732 -3.73091,-1.7557 -2.30438,-0.76816 -4.93794,-1.53625 -6.58393,-2.08492 -9.54672,-6.03532 -2.85305,-4.06008 -2.85305,-8.77857 0,-3.62117 1.86544,-7.24234 1.97518,-3.73089 6.14503,-6.145 4.27956,-2.52386 10.97323,-2.52386 6.03529,0 10.2051,1.20706 4.16985,1.20706 7.90077,3.95037 l -5.81584,8.99804 q -2.08493,-1.64596 -4.71849,-2.7433 -2.52383,-1.20703 -4.71849,-1.3168 -1.97518,-0.10971 -3.40166,0.43899 -1.31683,0.54861 -2.08496,1.42648 -0.76815,0.87787 -0.76815,1.86544 -0.10971,2.08492 1.53628,3.29198 1.75573,1.20709 4.38933,1.86544 2.63353,0.65839 5.15736,1.53625 3.51146,1.09732 6.03529,2.96276 2.52385,1.86547 3.84065,4.49904 1.42651,2.52383 1.42651,6.145 0,4.38933 -2.3044,8.33966 -2.19464,3.84066 -6.80339,6.25478 -4.49904,2.41408 -11.5219,2.41408 z"
         style="font-style:normal;font-variant:normal;font-weight:bold;font-stretch:normal;font-size:50.8px;line-height:1.25;font-family:'Josefin Sans';-inkscape-font-specification:'Josefin Sans Bold';letter-spacing:-2.84427px;fill:#010101;fill-opacity:1;stroke-width:0.57179;stroke-miterlimit:4;stroke-dasharray:none"
         id="path950-9-9" />
      <path
         d="m 317.5788,227.86702 q 0,-3.40172 2.41408,-5.7061 2.52389,-2.30437 5.48662,-2.30437 2.74334,0 5.15742,2.30437 2.52386,2.30438 2.52386,5.7061 0,3.62117 -2.52386,5.81581 -2.41408,2.08492 -5.15742,2.08492 -2.96273,0 -5.48662,-2.08492 -2.41408,-2.19464 -2.41408,-5.81581 z"
         style="font-size:50.8px;line-height:1.25;font-family:'Josefin Sans';-inkscape-font-specification:'Josefin Sans';fill:#4c4c4c;fill-opacity:1;stroke-width:0.571522"
         id="path952-7-0" />
    </g>
    <text
       sodipodi:insensitive="true"
       inkscape:label="«Grayscale logo variant.»"
       xml:space="preserve"
       style="font-style:normal;font-variant:normal;font-weight:normal;font-stretch:normal;font-size:9.87778px;line-height:1.25;font-family:'Josefin Sans';-inkscape-font-specification:'Josefin Sans';fill:#000000;fill-opacity:0.6;stroke-width:0.264583"
       x="254.56677"
       y="253.44003"
       id="text1000"><tspan
         sodipodi:role="line"
         id="tspan998"
         x="254.56677"
         y="253.44003"
         style="font-style:normal;font-variant:normal;font-weight:normal;font-stretch:normal;font-size:9.87778px;font-family:'Josefin Sans';-inkscape-font-specification:'Josefin Sans';fill:#000000;fill-opacity:0.6;stroke-width:0.264583">Grayscale logo variant.</tspan></text>
  </g>
</svg>
