<?xml version="1.0" encoding="UTF-8" standalone="no"?>
<svg
   xmlns:dc="http://purl.org/dc/elements/1.1/"
   xmlns:cc="http://creativecommons.org/ns#"
   xmlns:rdf="http://www.w3.org/1999/02/22-rdf-syntax-ns#"
   xmlns:svg="http://www.w3.org/2000/svg"
   xmlns="http://www.w3.org/2000/svg"
   xmlns:sodipodi="http://sodipodi.sourceforge.net/DTD/sodipodi-0.dtd"
   xmlns:inkscape="http://www.inkscape.org/namespaces/inkscape"
   sodipodi:docname="Visiting Card (Back, Light).svg"
   inkscape:version="1.0 (4035a4fb49, 2020-05-01)"
   id="svg8"
   version="1.1"
   viewBox="0 0 88.9 50.8"
   height="2in"
   width="3.5in">
  <defs
     id="defs2">
    <mask
       maskUnits="userSpaceOnUse"
       id="mask3497">
      <rect
         style="display:inline;fill:#000000;fill-opacity:1;stroke:#ffffff;stroke-width:0.499999"
         id="rect3499"
         width="26.19953"
         height="25.471338"
         x="23.87862"
         y="11.206574" />
    </mask>
    <mask
       maskUnits="userSpaceOnUse"
       id="mask3731">
      <rect
         style="fill:#000000;fill-opacity:1;stroke:#ffffff;stroke-width:0.499999"
         id="rect3733"
         width="23.389353"
         height="22.683283"
         x="25.133936"
         y="12.821857" />
    </mask>
  </defs>
  <sodipodi:namedview
     id="base"
     pagecolor="#ffffff"
     bordercolor="#666666"
     borderopacity="1.0"
     inkscape:pageopacity="0.0"
     inkscape:pageshadow="2"
     inkscape:zoom="1.1794144"
     inkscape:cx="136.49696"
     inkscape:cy="135.88855"
     inkscape:document-units="mm"
     inkscape:current-layer="layer1"
     inkscape:document-rotation="0"
     showgrid="false"
     units="in"
     inkscape:snap-bbox="true"
     inkscape:snap-page="true"
     inkscape:window-width="1270"
     inkscape:window-height="672"
     inkscape:window-x="48"
     inkscape:window-y="48"
     inkscape:window-maximized="0" />
  <metadata
     id="metadata5">
    <rdf:RDF>
      <cc:Work
         rdf:about="">
        <dc:format>image/svg+xml</dc:format>
        <dc:type
           rdf:resource="http://purl.org/dc/dcmitype/StillImage" />
        <dc:title></dc:title>
      </cc:Work>
    </rdf:RDF>
  </metadata>
  <g
     inkscape:label="Layer 1"
     inkscape:groupmode="layer"
     id="layer1">
    <g
       transform="translate(1.9500004,-0.66695911)"
       id="g442">
      <g
         transform="matrix(0.09907976,0,0,0.09907976,29.96641,11.504798)"
         id="elements"
         style="display:inline">
        <path
           style="fill:#000001"
           d="M 11,11 H 22 V 22 H 11 Z m 11,0 H 33 V 22 H 22 Z m 11,0 H 44 V 22 H 33 Z m 11,0 H 55 V 22 H 44 Z m 11,0 H 66 V 22 H 55 Z m 11,0 H 77 V 22 H 66 Z m 11,0 H 88 V 22 H 77 Z m 33,0 h 11 v 11 h -11 z m 33,0 h 11 v 11 h -11 z m 22,0 h 11 v 11 h -11 z m 11,0 h 11 v 11 h -11 z m 11,0 h 11 v 11 h -11 z m 11,0 h 11 v 11 h -11 z m 11,0 h 11 v 11 h -11 z m 11,0 h 11 v 11 h -11 z m 11,0 h 11 V 22 H 231 Z M 11,22 H 22 V 33 H 11 Z m 66,0 H 88 V 33 H 77 Z m 22,0 h 11 V 33 H 99 Z m 33,0 h 11 v 11 h -11 z m 33,0 h 11 v 11 h -11 z m 66,0 h 11 V 33 H 231 Z M 11,33 H 22 V 44 H 11 Z m 22,0 H 44 V 44 H 33 Z m 11,0 H 55 V 44 H 44 Z m 11,0 H 66 V 44 H 55 Z m 22,0 H 88 V 44 H 77 Z m 33,0 h 11 v 11 h -11 z m 55,0 h 11 v 11 h -11 z m 22,0 h 11 v 11 h -11 z m 11,0 h 11 v 11 h -11 z m 11,0 h 11 v 11 h -11 z m 22,0 h 11 V 44 H 231 Z M 11,44 H 22 V 55 H 11 Z m 22,0 H 44 V 55 H 33 Z m 11,0 H 55 V 55 H 44 Z m 11,0 H 66 V 55 H 55 Z m 22,0 H 88 V 55 H 77 Z m 22,0 h 11 V 55 H 99 Z m 33,0 h 11 v 11 h -11 z m 33,0 h 11 v 11 h -11 z m 22,0 h 11 v 11 h -11 z m 11,0 h 11 v 11 h -11 z m 11,0 h 11 v 11 h -11 z m 22,0 h 11 V 55 H 231 Z M 11,55 H 22 V 66 H 11 Z m 22,0 H 44 V 66 H 33 Z m 11,0 H 55 V 66 H 44 Z m 11,0 H 66 V 66 H 55 Z m 22,0 H 88 V 66 H 77 Z m 44,0 h 11 v 11 h -11 z m 11,0 h 11 v 11 h -11 z m 11,0 h 11 v 11 h -11 z m 22,0 h 11 v 11 h -11 z m 22,0 h 11 v 11 h -11 z m 11,0 h 11 v 11 h -11 z m 11,0 h 11 v 11 h -11 z m 22,0 h 11 V 66 H 231 Z M 11,66 H 22 V 77 H 11 Z m 66,0 H 88 V 77 H 77 Z m 22,0 h 11 V 77 H 99 Z m 11,0 h 11 v 11 h -11 z m 11,0 h 11 v 11 h -11 z m 22,0 h 11 v 11 h -11 z m 22,0 h 11 v 11 h -11 z m 66,0 h 11 V 77 H 231 Z M 11,77 H 22 V 88 H 11 Z m 11,0 H 33 V 88 H 22 Z m 11,0 H 44 V 88 H 33 Z m 11,0 H 55 V 88 H 44 Z m 11,0 H 66 V 88 H 55 Z m 11,0 H 77 V 88 H 66 Z m 11,0 H 88 V 88 H 77 Z m 22,0 h 11 V 88 H 99 Z m 22,0 h 11 v 11 h -11 z m 22,0 h 11 v 11 h -11 z m 22,0 h 11 v 11 h -11 z m 11,0 h 11 v 11 h -11 z m 11,0 h 11 v 11 h -11 z m 11,0 h 11 v 11 h -11 z m 11,0 h 11 v 11 h -11 z m 11,0 h 11 v 11 h -11 z m 11,0 h 11 V 88 H 231 Z M 121,88 h 11 v 11 h -11 z m 11,0 h 11 v 11 h -11 z m 11,0 h 11 V 99 H 143 Z M 11,99 h 11 v 11 H 11 Z m 11,0 h 11 v 11 H 22 Z m 11,0 h 11 v 11 H 33 Z m 11,0 h 11 v 11 H 44 Z m 11,0 h 11 v 11 H 55 Z m 22,0 h 11 v 11 H 77 Z m 11,0 h 11 v 11 H 88 Z m 11,0 h 11 v 11 H 99 Z m 11,0 h 11 v 11 h -11 z m 33,0 h 11 v 11 h -11 z m 11,0 h 11 v 11 h -11 z m 22,0 h 11 v 11 h -11 z m 22,0 h 11 v 11 h -11 z m 22,0 h 11 v 11 H 220 Z M 11,110 h 11 v 11 H 11 Z m 55,0 h 11 v 11 H 66 Z m 22,0 h 11 v 11 H 88 Z m 11,0 h 11 v 11 H 99 Z m 11,0 h 11 v 11 h -11 z m 33,0 h 11 v 11 h -11 z m 44,0 h 11 v 11 h -11 z m 11,0 h 11 v 11 h -11 z m 11,0 h 11 v 11 h -11 z m 11,0 h 11 v 11 h -11 z m 11,0 h 11 v 11 H 231 Z M 22,121 h 11 v 11 H 22 Z m 55,0 h 11 v 11 H 77 Z m 11,0 h 11 v 11 H 88 Z m 22,0 h 11 v 11 h -11 z m 22,0 h 11 v 11 h -11 z m 22,0 h 11 v 11 h -11 z m 11,0 h 11 v 11 h -11 z m 33,0 h 11 v 11 h -11 z m 22,0 h 11 v 11 H 220 Z M 22,132 h 11 v 11 H 22 Z m 22,0 h 11 v 11 H 44 Z m 11,0 h 11 v 11 H 55 Z m 33,0 h 11 v 11 H 88 Z m 88,0 h 11 v 11 h -11 z m 11,0 h 11 v 11 h -11 z m 11,0 h 11 v 11 h -11 z m 11,0 h 11 v 11 h -11 z m 11,0 h 11 v 11 h -11 z m 11,0 h 11 v 11 H 231 Z M 11,143 h 11 v 11 H 11 Z m 44,0 h 11 v 11 H 55 Z m 11,0 h 11 v 11 H 66 Z m 11,0 h 11 v 11 H 77 Z m 11,0 h 11 v 11 H 88 Z m 22,0 h 11 v 11 h -11 z m 22,0 h 11 v 11 h -11 z m 33,0 h 11 v 11 h -11 z m 22,0 h 11 v 11 h -11 z m 11,0 h 11 v 11 h -11 z m 22,0 h 11 v 11 H 220 Z M 99,154 h 11 v 11 H 99 Z m 11,0 h 11 v 11 h -11 z m 11,0 h 11 v 11 h -11 z m 22,0 h 11 v 11 h -11 z m 11,0 h 11 v 11 h -11 z m 11,0 h 11 v 11 h -11 z m 11,0 h 11 v 11 h -11 z m 11,0 h 11 v 11 h -11 z m 11,0 h 11 v 11 h -11 z m 11,0 h 11 v 11 h -11 z m 11,0 h 11 v 11 h -11 z m 11,0 h 11 v 11 H 231 Z M 11,165 h 11 v 11 H 11 Z m 11,0 h 11 v 11 H 22 Z m 11,0 h 11 v 11 H 33 Z m 11,0 h 11 v 11 H 44 Z m 11,0 h 11 v 11 H 55 Z m 11,0 h 11 v 11 H 66 Z m 11,0 h 11 v 11 H 77 Z m 22,0 h 11 v 11 H 99 Z m 44,0 h 11 v 11 h -11 z m 22,0 h 11 v 11 h -11 z m 33,0 h 11 v 11 h -11 z m 22,0 h 11 v 11 H 220 Z M 11,176 h 11 v 11 H 11 Z m 66,0 h 11 v 11 H 77 Z m 55,0 h 11 v 11 h -11 z m 11,0 h 11 v 11 h -11 z m 11,0 h 11 v 11 h -11 z m 55,0 h 11 v 11 H 209 Z M 11,187 h 11 v 11 H 11 Z m 22,0 h 11 v 11 H 33 Z m 11,0 h 11 v 11 H 44 Z m 11,0 h 11 v 11 H 55 Z m 22,0 h 11 v 11 H 77 Z m 22,0 h 11 v 11 H 99 Z m 11,0 h 11 v 11 h -11 z m 22,0 h 11 v 11 h -11 z m 33,0 h 11 v 11 h -11 z m 11,0 h 11 v 11 h -11 z m 44,0 h 11 v 11 h -11 z m 11,0 h 11 v 11 H 231 Z M 11,198 h 11 v 11 H 11 Z m 22,0 h 11 v 11 H 33 Z m 11,0 h 11 v 11 H 44 Z m 11,0 h 11 v 11 H 55 Z m 22,0 h 11 v 11 H 77 Z m 22,0 h 11 v 11 H 99 Z m 11,0 h 11 v 11 h -11 z m 66,0 h 11 v 11 h -11 z m 11,0 h 11 v 11 h -11 z m 11,0 h 11 v 11 H 198 Z M 11,209 h 11 v 11 H 11 Z m 22,0 h 11 v 11 H 33 Z m 11,0 h 11 v 11 H 44 Z m 11,0 h 11 v 11 H 55 Z m 22,0 h 11 v 11 H 77 Z m 22,0 h 11 v 11 H 99 Z m 11,0 h 11 v 11 h -11 z m 22,0 h 11 v 11 h -11 z m 11,0 h 11 v 11 h -11 z m 11,0 h 11 v 11 h -11 z m 11,0 h 11 v 11 H 165 Z M 11,220 h 11 v 11 H 11 Z m 66,0 h 11 v 11 H 77 Z m 22,0 h 11 v 11 H 99 Z m 11,0 h 11 v 11 h -11 z m 11,0 h 11 v 11 h -11 z m 11,0 h 11 v 11 h -11 z m 22,0 h 11 v 11 h -11 z m 33,0 h 11 v 11 h -11 z m 11,0 h 11 v 11 h -11 z m 11,0 h 11 v 11 H 209 Z M 11,231 h 11 v 11 H 11 Z m 11,0 h 11 v 11 H 22 Z m 11,0 h 11 v 11 H 33 Z m 11,0 h 11 v 11 H 44 Z m 11,0 h 11 v 11 H 55 Z m 11,0 h 11 v 11 H 66 Z m 11,0 h 11 v 11 H 77 Z m 22,0 h 11 v 11 H 99 Z m 22,0 h 11 v 11 h -11 z m 11,0 h 11 v 11 h -11 z m 33,0 h 11 v 11 h -11 z m 11,0 h 11 v 11 h -11 z m 22,0 h 11 v 11 h -11 z m 22,0 h 11 v 11 h -11 z"
           id="path4794" />
      </g>
      <text
         id="text4825"
         y="39.469212"
         x="34.023319"
         style="font-size:2.91797px;line-height:1.25;font-family:'Paytone One';-inkscape-font-specification:'Paytone One';display:inline;stroke-width:0.218847"
         xml:space="preserve"><tspan
           style="font-style:normal;font-variant:normal;font-weight:300;font-stretch:normal;font-size:2.91797px;font-family:'Josefin Sans';-inkscape-font-specification:'Josefin Sans Light';fill:#000000;stroke-width:0.218847"
           y="39.469212"
           x="34.023319"
           id="tspan4823"
           sodipodi:role="line">www.sans.com</tspan></text>
    </g>
  </g>
</svg>
