<?xml version="1.0" encoding="UTF-8" standalone="no"?>
<svg
   xmlns:dc="http://purl.org/dc/elements/1.1/"
   xmlns:cc="http://creativecommons.org/ns#"
   xmlns:rdf="http://www.w3.org/1999/02/22-rdf-syntax-ns#"
   xmlns:svg="http://www.w3.org/2000/svg"
   xmlns="http://www.w3.org/2000/svg"
   xmlns:sodipodi="http://sodipodi.sourceforge.net/DTD/sodipodi-0.dtd"
   xmlns:inkscape="http://www.inkscape.org/namespaces/inkscape"
   inkscape:export-ydpi="1000"
   inkscape:export-xdpi="1000"
   inkscape:export-filename="/home/eanmos/Yandex.Disk/Logo/Visiting Card (Front, Light).png"
   width="3.5in"
   height="2in"
   viewBox="0 0 88.9 50.8"
   version="1.1"
   id="svg8"
   inkscape:version="1.0 (4035a4fb49, 2020-05-01)"
   sodipodi:docname="Visiting Card (Front, Light).svg">
  <defs
     id="defs2" />
  <sodipodi:namedview
     inkscape:window-maximized="0"
     inkscape:window-y="48"
     inkscape:window-x="48"
     inkscape:window-height="672"
     inkscape:window-width="1270"
     inkscape:snap-page="true"
     inkscape:snap-bbox="true"
     units="in"
     showgrid="false"
     inkscape:document-rotation="0"
     inkscape:current-layer="layer1"
     inkscape:document-units="mm"
     inkscape:cy="134.88047"
     inkscape:cx="-115.25668"
     inkscape:zoom="0.58970721"
     inkscape:pageshadow="2"
     inkscape:pageopacity="0.0"
     borderopacity="1.0"
     bordercolor="#666666"
     pagecolor="#ffffff"
     id="base" />
  <metadata
     id="metadata5">
    <rdf:RDF>
      <cc:Work
         rdf:about="">
        <dc:format>image/svg+xml</dc:format>
        <dc:type
           rdf:resource="http://purl.org/dc/dcmitype/StillImage" />
        <dc:title></dc:title>
      </cc:Work>
    </rdf:RDF>
  </metadata>
  <g
     id="layer1"
     inkscape:groupmode="layer"
     inkscape:label="Layer 1">
    <g
       transform="translate(1.95,-2.1)"
       id="g116">
      <path
         inkscape:label="S"
         d="m 20.312904,33.72567 q -1.434363,0 -2.682806,-0.50876 -1.221871,-0.508769 -2.07186,-1.419192 l 1.540615,-2.061831 q 0.849996,0.776536 1.567187,1.124633 0.743746,0.321328 1.328122,0.321328 0.451559,0 0.796868,-0.08033 0.37188,-0.107108 0.584373,-0.294549 0.212503,-0.214217 0.212503,-0.535537 0,-0.455215 -0.371874,-0.722986 -0.345317,-0.26777 -0.903128,-0.428429 -0.557809,-0.187448 -1.195305,-0.374879 -1.593744,-0.508766 -2.310933,-1.47275 -0.690618,-0.990748 -0.690618,-2.142163 0,-0.883645 0.451559,-1.76729 0.478125,-0.910418 1.487493,-1.499514 1.035935,-0.615877 2.656242,-0.615877 1.460935,0 2.470306,0.294549 1.009368,0.294549 1.912496,0.963977 l -1.407808,2.195718 q -0.504688,-0.40165 -1.142184,-0.669425 -0.610937,-0.294541 -1.142185,-0.321328 -0.478123,-0.02677 -0.823433,0.107123 -0.318751,0.133873 -0.504686,0.348093 -0.185939,0.214219 -0.185939,0.455208 -0.02655,0.508766 0.371874,0.803315 0.424995,0.294557 1.062499,0.455209 0.637497,0.160661 1.248427,0.374878 0.850007,0.26777 1.460937,0.722979 0.61094,0.455214 0.929691,1.097863 0.345307,0.61587 0.345307,1.499514 0,1.071094 -0.55781,2.035061 -0.531251,0.937205 -1.646871,1.526302 -1.089063,0.589089 -2.789059,0.58909 z"
         style="font-style:normal;font-variant:normal;font-weight:bold;font-stretch:normal;font-size:50.8px;line-height:1.25;font-family:'Josefin Sans';-inkscape-font-specification:'Josefin Sans Bold';letter-spacing:-2.84427px;display:inline;fill:#000000;fill-opacity:1;stroke-width:0.138969;stroke-miterlimit:4;stroke-dasharray:none"
         id="path944-8-5" />
      <path
         inkscape:label="A"
         d="m 31.814674,33.806006 q -1.620308,0 -2.94842,-0.642656 -1.301558,-0.669426 -2.071877,-2.03506 -0.770304,-1.365634 -0.770304,-3.481015 0,-1.981509 0.796868,-3.427473 0.796876,-1.445957 2.098434,-2.222501 1.301555,-0.803307 2.762492,-0.803307 1.726557,0 2.603121,0.589105 0.903117,0.562309 1.487493,1.258509 l -0.159373,0.455216 0.345309,-1.713725 h 3.453117 v 11.701579 h -3.71874 v -2.543819 l 0.292187,0.803308 q -0.05311,0 -0.318752,0.321336 -0.265621,0.294531 -0.796868,0.722968 -0.504688,0.401668 -1.274999,0.696207 -0.743746,0.321328 -1.779688,0.321328 z m 1.062498,-3.052595 q 0.664069,0 1.195314,-0.187437 0.531254,-0.214212 0.929685,-0.589098 0.398437,-0.401658 0.690623,-0.990747 v -2.865148 q -0.2125,-0.589096 -0.637503,-0.990756 -0.424994,-0.428436 -1.00937,-0.642646 -0.584373,-0.240998 -1.301555,-0.240998 -0.796876,0 -1.487501,0.428436 -0.664061,0.40165 -1.062499,1.124635 -0.398431,0.722979 -0.398431,1.660184 0,0.937196 0.424995,1.686953 0.425002,0.749757 1.11562,1.178186 0.71719,0.428436 1.540622,0.428436 z"
         style="font-style:normal;font-variant:normal;font-weight:bold;font-stretch:normal;font-size:50.8px;line-height:1.25;font-family:'Josefin Sans';-inkscape-font-specification:'Josefin Sans Bold';letter-spacing:-2.84427px;display:inline;fill:#000000;fill-opacity:1;stroke-width:0.138969;stroke-miterlimit:4;stroke-dasharray:none"
         id="path946-1-3" />
      <path
         inkscape:label="N"
         d="m 45.122689,21.783099 0.292188,2.088603 -0.05311,-0.187431 q 0.610931,-1.097871 1.726564,-1.767299 1.11562,-0.6962 2.735932,-0.6962 1.646864,0 2.735927,0.990749 1.115614,0.963975 1.142184,2.517046 v 8.756111 h -3.718746 v -7.363697 q -0.02655,-0.776543 -0.424989,-1.231744 -0.371872,-0.481998 -1.274999,-0.481998 -0.849998,0 -1.487494,0.562327 -0.637502,0.562319 -0.982812,1.526286 -0.345316,0.963984 -0.345316,2.222508 v 4.766318 H 41.749272 V 21.783099 Z"
         style="font-style:normal;font-variant:normal;font-weight:bold;font-stretch:normal;font-size:50.8px;line-height:1.25;font-family:'Josefin Sans';-inkscape-font-specification:'Josefin Sans Bold';letter-spacing:-2.84427px;display:inline;fill:#000000;fill-opacity:1;stroke-width:0.138969;stroke-miterlimit:4;stroke-dasharray:none"
         id="path948-9-4" />
      <path
         inkscape:label="S"
         d="m 59.811985,33.72567 q -1.434366,0 -2.682809,-0.50876 -1.221861,-0.508769 -2.071868,-1.419192 l 1.540622,-2.061831 q 0.849998,0.776536 1.567189,1.124633 0.743748,0.321328 1.328114,0.321328 0.451573,0 0.796874,-0.08033 0.371874,-0.107108 0.584376,-0.294549 0.2125,-0.214217 0.2125,-0.535537 0,-0.455215 -0.371874,-0.722986 -0.345317,-0.267769 -0.903124,-0.428429 -0.557812,-0.187448 -1.195307,-0.374878 -1.593743,-0.508767 -2.310934,-1.472751 -0.690624,-0.990748 -0.690624,-2.142162 0,-0.883645 0.451558,-1.76729 0.478124,-0.910419 1.4875,-1.499514 1.035936,-0.615878 2.656243,-0.615878 1.460936,0 2.470304,0.29455 1.009379,0.294549 1.912505,0.963977 l -1.407815,2.195718 q -0.50469,-0.401651 -1.142184,-0.669425 -0.610931,-0.294542 -1.142184,-0.321328 -0.478124,-0.02677 -0.823425,0.107122 -0.318759,0.133873 -0.504697,0.348093 -0.185942,0.214219 -0.185942,0.455208 -0.02655,0.508767 0.37188,0.803315 0.425003,0.294557 1.062505,0.455209 0.637487,0.160661 1.248421,0.374879 0.850002,0.267769 1.460936,0.722978 0.610936,0.455215 0.929689,1.097864 0.34531,0.615869 0.34531,1.499514 0,1.071093 -0.557817,2.03506 -0.531248,0.937205 -1.646866,1.526303 -1.089064,0.589089 -2.789056,0.589089 z"
         style="font-style:normal;font-variant:normal;font-weight:bold;font-stretch:normal;font-size:50.8px;line-height:1.25;font-family:'Josefin Sans';-inkscape-font-specification:'Josefin Sans Bold';letter-spacing:-2.84427px;display:inline;fill:#000000;fill-opacity:1;stroke-width:0.138969;stroke-miterlimit:4;stroke-dasharray:none"
         id="path950-9-9" />
      <path
         inkscape:label="Dot"
         d="m 65.669899,31.788281 q 0,-0.830093 0.584368,-1.392413 0.610947,-0.562316 1.328122,-0.562316 0.664069,0 1.248434,0.562316 0.610939,0.56232 0.610939,1.392413 0,0.883645 -0.610939,1.419185 -0.584365,0.508766 -1.248434,0.508766 -0.717175,0 -1.328122,-0.508766 -0.584368,-0.53554 -0.584368,-1.419185 z"
         style="font-size:50.8px;line-height:1.25;font-family:'Josefin Sans';-inkscape-font-specification:'Josefin Sans';display:inline;fill:#ff0000;fill-opacity:1;stroke-width:0.138903"
         id="path952-7-0" />
    </g>
  </g>
</svg>
